<svg width="545" height="647" viewBox="0 0 545 647" fill="none" xmlns="http://www.w3.org/2000/svg">
<path fill-rule="evenodd" clip-rule="evenodd" d="M254.619 1.54919C259.678 1.68658 266.398 2.39643 269.545 3.11774C272.693 3.83905 276.814 5.01833 278.703 5.72819C280.591 6.44949 284.449 7.99515 287.288 9.18588C290.115 10.3652 293.984 12.1742 295.873 13.1817C297.761 14.1892 302.649 17.2462 306.747 19.9711C310.845 22.6961 315.996 26.4972 318.194 28.4322C320.952 30.8365 323.367 31.9242 325.92 31.9013C327.969 31.8784 329.64 32.3707 329.64 33.0005C329.64 33.6302 329.125 34.3973 328.495 34.7179C327.866 35.0384 327.088 36.836 326.779 38.7251C326.389 41.0379 325.371 42.3889 323.631 42.8698C322.211 43.259 320.288 44.2437 319.338 45.068C317.884 46.3389 316.671 45.6634 311.326 40.6257C307.857 37.3626 302.706 33.1035 299.879 31.1571C297.04 29.2222 291.386 26.0507 287.288 24.1158C283.19 22.1809 277.009 19.7765 273.552 18.7575C270.083 17.75 264.681 16.3761 261.533 15.712C258.385 15.0479 253.486 14.0976 245.507 12.7008L250.372 12.5405C253.051 12.4604 255.237 11.8765 255.237 11.2468C255.237 10.617 253.051 10.1705 250.372 10.2507C247.694 10.3423 244.992 10.3423 244.363 10.2621C243.733 10.1705 243.081 8.43022 242.921 6.3808C242.76 4.33137 243.252 2.35064 244.019 1.98426C244.786 1.60643 249.548 1.41179 254.619 1.54919V1.54919ZM222.614 2.69412C224.503 2.84296 227.078 3.0376 228.338 3.10629C230.215 3.20934 230.661 4.10238 231.016 12.9642L223.381 14.4984C219.18 15.3456 211.877 17.0401 207.161 18.2766C202.434 19.5132 197.546 20.9214 196.287 21.4023C195.028 21.8946 190.655 23.9212 186.557 25.9133C182.459 27.9055 176.026 31.5578 172.249 34.0309C168.472 36.5154 161.512 42.6064 156.796 47.5983C152.069 52.5788 147.055 58.1546 145.647 59.9979C144.239 61.8298 143.083 62.7 143.072 61.91C143.072 61.12 142.671 60.4674 142.202 60.4559C141.732 60.4445 140.313 61.3833 139.054 62.5397C137.795 63.6961 135.608 65.2532 134.189 65.9974C132.77 66.7416 129.942 67.3141 127.893 67.2683C125.844 67.2225 123.143 66.7759 121.884 66.2607C120.625 65.757 119.08 65.7799 118.45 66.3294C117.82 66.8675 110.861 68.8254 102.997 70.6802C95.1217 72.5235 85.209 75.3744 80.9623 76.9887C76.7156 78.6145 70.1567 81.8776 66.4022 84.2362C62.6477 86.5947 55.6767 92.3995 50.9149 97.1166C45.9699 102.028 40.693 108.646 38.5869 112.573C36.5608 116.351 34.0883 121.504 33.1039 124.023C32.1081 126.541 30.3567 132.472 29.2006 137.189C27.518 144.07 27.2433 148.169 27.8385 157.798C28.2391 164.404 28.9832 170.083 29.4982 170.392C30.0133 170.701 31.4098 173.541 32.6117 176.689C33.8136 179.838 36.5494 184.99 38.7013 188.139C40.8419 191.287 46.0157 197.378 50.1937 201.672C54.3718 205.965 61.0222 211.633 64.9828 214.266C68.9433 216.899 72.1598 219.441 72.1369 219.911C72.114 220.38 72.9954 220.804 74.0943 220.849C75.8113 220.918 75.7655 221.078 73.8081 221.914C72.549 222.452 72.1598 222.933 72.9496 222.979C73.7623 223.025 74.3805 224.548 74.3805 226.494C74.3805 228.543 75.5251 231.2 77.2307 233.077C78.7874 234.806 79.829 236.489 79.5314 236.798C79.2453 237.107 80.0122 238.401 81.2484 239.661C82.4847 240.92 83.2516 242.34 82.9425 242.809C82.6449 243.279 83.4233 243.931 84.6824 244.24C85.9415 244.549 86.9603 245.717 86.9603 246.816C86.9488 247.916 87.0748 249.725 87.2465 250.824C87.4067 251.923 88.0592 252.862 88.6887 252.919C89.3183 252.965 90.8636 253.217 92.1227 253.48C93.3818 253.743 96.0947 255.896 98.1436 258.266C100.193 260.624 102.127 263.464 102.436 264.563C102.745 265.662 104.542 267.345 106.431 268.284C109.064 269.601 110.014 270.997 110.517 274.295C110.872 276.653 111.41 279.619 111.708 280.878C112.051 282.367 111.021 284.473 105.286 290.61L105.263 276.298L101.509 280.306C99.4486 282.515 96.9189 286.111 95.8887 288.32C94.8699 290.53 92.9583 293.358 89.2611 296.907L86.8344 294.617C85.0029 292.889 82.1184 292.144 75.1016 291.572C69.985 291.148 63.7351 290.232 61.2168 289.511C58.6986 288.79 54.5778 287.198 52.0595 285.95C49.5413 284.714 45.9356 282.424 44.0469 280.878C42.1582 279.321 38.4381 275.852 35.771 273.161C33.1154 270.482 29.6928 265.971 28.159 263.132C26.6366 260.292 24.5533 253.858 23.546 248.82C21.8862 240.554 21.8748 238.79 23.4315 230.787C24.3816 225.91 26.442 219.853 28.0216 217.334C29.5898 214.816 31.3984 212.491 32.028 212.182C32.6575 211.873 33.1841 210.969 33.207 210.179C33.2298 209.389 30.723 205.393 27.6553 201.305C24.5876 197.218 20.8789 191.551 19.4023 188.711C17.9372 185.872 15.6707 179.369 14.3658 174.239C13.0609 169.121 12.3855 165.126 12.8549 165.366C13.3242 165.618 15.7852 165.423 22.9164 164.095L22.8707 147.494H10.2794L10.9891 139.765C11.3897 135.518 12.603 129.198 13.7019 125.74C14.8008 122.282 17.2504 116.351 19.1391 112.573C21.0277 108.795 25.6407 101.845 29.3723 97.1166C33.1039 92.3995 39.4797 85.8963 43.5433 82.6905C47.5954 79.4732 53.2271 75.6034 56.0659 74.1035C58.8932 72.5922 61.3428 70.9664 61.503 70.497C61.6633 70.0275 62.3043 69.6383 62.9338 69.6383C63.5634 69.6383 67.0432 68.2873 70.6603 66.6386C74.2774 64.9898 80.0694 62.6542 83.5378 61.452C86.9946 60.2613 94.2175 58.7385 99.563 58.063C104.909 57.399 113.413 56.609 118.45 56.3227C123.486 56.025 128.637 55.59 129.897 55.361C131.156 55.132 136.043 50.2202 140.771 44.4498C145.681 38.4503 152.79 31.4205 157.368 28.02C161.775 24.757 167.441 20.7497 169.96 19.1124C172.478 17.4866 178.396 14.4869 183.123 12.4489C187.839 10.4224 194.799 7.77761 198.576 6.58688C202.354 5.38471 208.535 3.96499 212.312 3.40397C216.09 2.85441 220.726 2.53383 222.614 2.69412V2.69412ZM424.063 51.3194C425.013 51.3194 427.967 53.2543 430.622 55.6129C433.289 57.9714 436.929 61.452 438.726 63.3411C440.524 65.2303 443.442 68.8368 445.205 71.3557C446.957 73.8745 449.475 78.2596 450.78 81.0876C452.085 83.9156 453.962 88.564 454.935 91.392C455.919 94.2314 457.075 99.6355 457.51 103.414C458.106 108.623 457.968 110.077 456.927 109.425C456.171 108.955 455.553 106.116 455.542 97.6891L451.821 98.044C449.784 98.2387 446.052 97.9639 443.534 97.4258C439.39 96.5442 438.795 95.9603 437.238 91.2202C436.288 88.335 433.381 82.679 430.771 78.6603C428.15 74.6416 423.995 69.0315 421.534 66.2035C418.214 62.4023 417.218 60.3872 417.699 58.4981C418.054 57.1013 419.244 54.903 420.343 53.6321C421.442 52.3613 423.113 51.3194 424.063 51.3194V51.3194ZM439.871 117.153L441.245 127.389L446.968 127.034C450.116 126.839 452.943 126.164 453.264 125.534C453.573 124.916 454.351 124.572 454.981 124.778C455.61 124.996 456.251 124.011 456.412 122.591C456.572 121.172 457.213 120.015 457.842 120.015C458.472 120.015 458.976 121.95 458.964 124.309C458.953 126.667 458.254 133.239 457.407 138.907C456.56 144.574 455.198 150.505 454.397 152.073C453.584 153.653 452.359 155.302 451.661 155.749C450.974 156.195 450.402 157.741 450.402 159.183C450.402 160.615 449.761 161.931 448.971 162.092C448.181 162.252 447.414 162.424 447.254 162.481C447.094 162.538 445.159 162.847 442.962 163.156C440.764 163.465 438.314 164.187 437.525 164.759C436.735 165.343 435.579 165.549 434.949 165.24C434.32 164.931 433.541 165.698 433.232 166.957C432.912 168.217 432.396 169.247 432.087 169.247C431.767 169.247 430.096 168.606 428.367 167.828C426.639 167.049 424.647 165.629 423.949 164.679C422.953 163.317 423.617 161.485 427.085 156.081C429.5 152.302 433.301 144.448 435.51 138.62C437.776 132.655 439.608 125.66 439.699 122.591L439.871 117.153ZM415.513 185.276C415.993 188.734 416.657 192.867 417.001 194.436C417.333 196.016 416.909 199.611 416.051 202.45C414.551 207.408 414.505 207.064 414.574 193.291C414.631 181.819 414.814 180.227 415.513 185.276ZM401.662 181.532C402.029 181.83 402.475 183.444 402.67 185.116C402.853 186.776 403.368 191.23 403.814 195.008C404.249 198.787 404.329 207.809 403.986 215.045C403.643 222.281 403.173 227.181 402.956 225.921C402.727 224.662 402.486 222.853 402.406 221.914C402.338 220.975 401.513 220.323 400.586 220.483C399.648 220.632 397.873 218.892 396.603 216.567C395.344 214.266 392.23 210.27 389.678 207.706C387.125 205.129 383.783 202.118 382.237 201.008C379.994 199.393 379.834 198.981 381.436 199.004C382.535 199.004 383.691 198.237 384.012 197.298C384.447 195.993 385.133 195.856 386.873 196.726C388.132 197.355 389.357 197.745 389.586 197.584C389.826 197.424 390.857 195.627 391.875 193.577C392.906 191.528 393.753 188.952 393.753 187.852C393.764 186.753 395.401 184.75 397.381 183.41C399.373 182.082 401.296 181.223 401.662 181.532V181.532ZM340.698 183.433C341.545 183.822 342.747 184.131 343.376 184.131C344.006 184.131 344.521 185.425 344.521 186.994C344.521 189.616 344.109 189.845 339.656 189.753C336.977 189.696 332.216 189.249 329.068 188.768C324.615 188.07 324.169 187.841 327.065 187.715C329.114 187.635 331.037 187.051 331.357 186.421C331.666 185.792 332.696 185.54 333.646 185.849C334.585 186.158 335.363 185.906 335.363 185.276C335.363 184.647 336.13 184.395 337.08 184.704C338.019 185.013 338.878 184.704 338.981 184.005C339.072 183.307 339.851 183.055 340.698 183.433ZM414.917 216.19C415.227 216.19 416.646 217.346 418.065 218.766C419.485 220.185 420.515 221.731 420.355 222.2C420.194 222.67 420.687 222.933 421.431 222.773C422.186 222.613 423.01 223.517 423.285 224.777C423.548 226.036 424.132 227.33 424.578 227.639C425.036 227.948 427.257 232.585 429.523 237.943C431.79 243.302 435.796 254.888 438.44 263.704C441.073 272.52 444.038 281.279 445.011 283.168C445.984 285.057 449.841 290.725 453.561 295.762C457.293 300.8 462.169 308.792 464.401 313.509C466.633 318.237 469.415 324.283 470.594 326.962C472.082 330.351 473.421 331.828 475.012 331.828C476.271 331.828 478.721 331.095 480.449 330.202C482.178 329.309 485.784 327.763 488.462 326.767C491.141 325.771 494.872 324.958 496.761 324.958C498.65 324.958 502.896 325.885 506.204 327.019C509.512 328.152 514.698 330.866 517.742 333.03C520.787 335.205 525.217 339.556 527.587 342.704C529.945 345.853 533.436 351.784 535.336 355.871C537.236 359.959 539.182 365.111 539.651 367.321C540.132 369.53 540.956 371.843 541.494 372.473C542.032 373.102 542.914 378.77 543.452 385.067C544.001 391.364 544.356 397.81 544.241 399.379C544.138 400.959 543.967 404.943 543.875 408.252C543.703 413.851 543.497 414.263 540.83 414.263C538.324 414.263 537.969 413.77 537.969 410.255C537.969 407.256 537.465 406.214 535.966 406.111C534.054 405.985 534.054 405.962 535.966 405.538C537.064 405.298 537.969 404.336 537.969 403.386C537.969 402.161 537.145 401.829 535.107 402.241C532.486 402.768 532.245 402.47 532.245 398.806C532.245 396.562 532.875 394.627 533.676 394.421C534.684 394.158 534.523 393.482 533.104 392.131C532.005 391.078 530.975 390.448 530.815 390.711C530.654 390.986 530.128 387.517 529.624 382.983C529.132 378.461 528.491 373.343 528.193 371.614C527.85 369.565 528.17 368.488 529.098 368.511C530.242 368.557 530.242 368.214 529.098 366.794C528.296 365.798 527.049 365.408 526.259 365.889C525.263 366.496 525.091 366.164 525.686 364.744C526.144 363.645 526.064 362.867 525.492 363.027C524.931 363.187 522.699 361 520.547 358.161C518.384 355.322 513.564 350.959 509.833 348.463C505.105 345.281 501.843 343.918 499.05 343.93C496.772 343.941 493.064 345.2 490.465 346.849C487.947 348.441 484.215 352.402 482.166 355.665C479.041 360.646 478.446 362.695 478.446 368.465C478.446 372.244 478.835 375.53 479.305 375.77C479.774 376.011 480.552 378.587 481.022 381.495C481.743 385.96 482.281 386.784 484.456 386.784C486.722 386.784 487.066 387.437 487.34 392.223C487.512 395.211 487.924 399.722 488.279 402.241C488.622 404.76 490.488 410.164 492.423 414.263C494.357 418.362 496.188 423.25 496.486 425.14C496.795 427.029 496.463 432.696 495.765 437.734C494.781 444.764 494.815 448.427 495.914 453.511C496.692 457.152 497.07 460.449 496.761 460.85C496.44 461.251 496.83 461.228 497.619 460.816C498.489 460.358 499.279 460.964 499.623 462.35C499.932 463.609 500.859 464.64 501.683 464.64C502.496 464.64 503.8 463.999 504.567 463.209C505.678 462.064 505.952 462.121 505.952 463.495C505.952 464.445 506.582 463.987 507.36 462.441C508.139 460.919 509.421 459.499 510.211 459.293C511.069 459.064 511.71 460.163 511.802 462.064C511.893 463.792 511.893 467.147 511.802 469.506C511.71 472.036 512.111 473.559 512.786 473.227C513.416 472.918 513.931 472.918 513.931 473.227C513.931 473.536 512.065 475.471 505.643 481.241L507.612 489.256C509.089 495.301 509.375 499.514 508.791 506.43C508.368 511.467 506.983 519.711 505.735 524.749C504.476 529.786 501.534 538.03 499.176 543.068C496.83 548.105 492.01 556.612 488.462 561.959C484.925 567.306 476.889 577.61 470.617 584.858C464.344 592.105 455.519 601.116 451.009 604.894C446.499 608.672 441.68 612.84 440.306 614.168C438.933 615.484 436.002 617.866 433.804 619.446C431.595 621.037 425.414 624.644 420.068 627.46C414.711 630.277 406.218 634.032 401.182 635.796C396.145 637.559 388.934 639.746 385.156 640.661C381.379 641.577 373.137 643.009 366.842 643.844C360.546 644.68 345.86 645.401 334.219 645.436C321.261 645.493 307.937 644.841 299.879 643.764C292.633 642.803 283.11 641.555 278.703 640.982C274.296 640.421 264.509 638.349 256.954 636.391C249.399 634.433 239.349 631.502 234.633 629.888C229.906 628.273 221.802 625.216 216.605 623.087C211.408 620.946 202.399 616.824 196.573 613.916C190.747 611.008 185.859 608.168 185.699 607.619C185.539 607.069 184.772 606.6 183.982 606.6C183.192 606.588 178.945 604.173 174.538 601.241C170.131 598.31 164.591 594.452 162.233 592.666C159.498 590.605 158.25 588.922 158.799 588.018C159.364 587.079 159.173 586.888 158.227 587.445C157.334 587.972 155.938 587.102 154.541 585.144C153.293 583.415 152.652 581.526 153.11 580.953C153.557 580.381 153.293 580.255 152.504 580.667C151.714 581.079 150.432 580.621 149.642 579.66C148.852 578.686 148.6 577.908 149.07 577.942C149.539 577.965 147.742 575.801 145.063 573.122C142.385 570.443 139.558 567.1 138.768 565.68C137.978 564.26 137.337 562.337 137.337 561.386C137.337 560.436 136.559 559.406 135.62 559.097C134.67 558.787 133.571 556.589 133.17 554.231C132.77 551.872 131.545 548.655 130.457 547.075C129.359 545.506 128.145 542.541 127.745 540.491C127.355 538.442 126.52 536.77 125.89 536.77C125.261 536.77 124.975 536.381 125.261 535.912C125.535 535.442 123.864 534.332 121.541 533.462C119.205 532.591 116.401 532.202 115.302 532.603C114.02 533.072 112.91 532.614 112.223 531.332C111.204 529.443 111.055 529.443 109.648 531.435C108.823 532.591 106.088 533.897 103.569 534.332C101.051 534.778 94.8699 534.526 89.8334 533.782C84.7969 533.038 79.1308 531.904 77.2421 531.263C75.3534 530.622 74.3232 530.05 74.9528 529.992C75.5824 529.935 76.0974 526.706 76.0974 522.802C76.0974 517.307 76.6125 515.166 78.3868 513.253C80.5616 510.895 80.9737 510.849 86.9717 512.303C90.4286 513.15 96.2321 513.849 99.8492 513.849C103.466 513.86 107.976 513.105 109.865 512.154C111.754 511.204 113.551 509.407 113.871 508.147C114.272 506.533 115.119 506.029 116.733 506.43C118.358 506.842 119.835 505.926 121.85 503.281C123.406 501.232 124.711 499.045 124.734 498.415C124.768 497.785 122.731 495.725 120.213 493.835C116.504 491.053 115.611 489.645 115.485 486.393C115.394 484.195 115.382 481.997 115.451 481.527C115.531 481.058 114.684 479.913 113.585 478.986C112.486 478.058 110.163 477.291 108.434 477.268C106.385 477.245 105.286 477.829 105.286 478.951C105.286 479.902 104.508 480.932 103.569 481.241C102.516 481.596 101.303 480.692 100.422 478.917C99.6317 477.326 98.6015 476.043 98.1322 476.055C97.6629 476.078 97.2737 474.028 97.2737 471.509C97.2737 468.99 96.7586 466.666 96.129 466.357C95.4766 466.025 94.9844 467.502 94.9844 469.792C94.9844 471.99 94.4693 473.799 93.8397 473.799C93.2101 473.799 92.18 475.608 91.5504 477.806C90.9208 480.005 90.0165 481.837 89.5472 481.871C89.0779 481.894 87.3266 480.222 85.6554 478.15C83.9956 476.066 82.0039 472.059 81.237 469.219C80.4815 466.38 80.1724 462.132 80.5502 459.774C80.9966 457.026 81.8665 455.48 82.9654 455.48C83.904 455.48 84.4535 454.839 84.1788 454.049C83.9041 453.259 85.1861 451.072 87.029 449.183C88.8719 447.294 90.6003 444.981 90.8636 444.031C91.1383 443.081 90.3714 440.379 89.1695 438.02C87.1892 434.162 87.1549 433.578 88.7574 432.295C89.7304 431.505 90.2455 430.223 89.9021 429.433C89.5472 428.643 89.7762 427.739 90.4057 427.429C91.0353 427.12 91.5504 427.624 91.5504 428.574C91.5504 429.525 92.1914 430.28 92.9812 430.269C93.771 430.257 95.5796 429.353 96.999 428.265C99.1052 426.651 99.6317 425.025 99.8492 419.415C99.998 415.179 99.2425 409.694 97.8575 405.103C95.9917 398.932 94.4349 396.47 88.7116 390.689C83.0341 384.952 80.5044 383.304 74.3805 381.346C70.2826 380.041 65.3949 378.713 63.5062 378.392C61.6175 378.083 57.2334 378.346 53.7765 378.999C49.5069 379.8 45.3518 381.701 40.8419 384.918C36.8012 387.792 32.4286 392.337 29.6585 396.516C27.1517 400.295 24.8509 405.057 24.5533 407.107C24.2557 409.156 23.5002 410.828 22.8707 410.828C22.2411 410.828 21.726 412.889 21.726 415.408C21.726 418.075 21.2452 419.747 20.5813 419.415C19.9518 419.106 19.2192 419.484 18.9559 420.274C18.6926 421.064 18.4294 420.285 18.3836 418.556C18.3378 416.827 17.5136 415.144 16.575 414.835C15.6249 414.526 15.1098 413.496 15.4304 412.545C15.7394 411.595 15.4876 410.828 14.858 410.828C14.2285 410.828 13.4501 411.858 13.141 413.118C12.7976 414.48 11.5156 415.476 9.9932 415.591C8.57382 415.682 6.7767 415.682 5.98689 415.591C5.19707 415.488 4.52172 416.312 4.47593 417.411C4.40725 419.129 4.247 419.083 3.4114 417.125C2.56435 415.144 2.41554 415.305 2.31252 418.27C2.22095 421.132 2.01491 421.373 1.08773 419.701C0.378041 418.43 0.355148 412.809 1.00761 404.245C1.85466 393.288 2.71315 389.2 5.62059 382.205C7.58941 377.488 11.1951 371.042 13.6332 367.893C16.0828 364.744 20.5699 359.81 23.6261 356.936C26.9342 353.799 31.9249 350.616 36.0343 349.013C40.2008 347.387 46.2675 346.139 51.4872 345.83C57.6913 345.464 61.9723 345.91 66.9402 347.41C70.7175 348.555 76.8415 351.314 80.5387 353.547C84.236 355.768 87.464 357.978 87.6929 358.447C87.9218 358.917 89.3984 359.306 90.9781 359.306C92.7981 359.306 94.3205 358.367 95.1446 356.73C96.026 355.001 96.2206 350.032 95.7513 341.56C95.3736 334.633 94.8012 327.168 94.4922 324.958C93.9771 321.237 94.0114 321.203 94.8585 324.386C95.4995 326.824 95.9802 327.317 96.5182 326.103C96.9303 325.164 97.4569 322.073 97.7087 319.233C97.9491 316.394 98.6015 314.219 99.1395 314.379C99.6889 314.539 100.135 315.535 100.135 316.577C100.135 317.619 100.776 318.638 101.566 318.856C102.356 319.062 102.997 320.264 102.997 321.523C102.997 323.206 103.764 323.813 105.859 323.813C107.896 323.813 108.881 323.069 109.281 321.237C109.579 319.817 109.831 315.821 109.831 312.364C109.831 308.769 110.449 305.471 111.273 304.67C112.429 303.571 113.265 303.868 115.302 306.101C116.722 307.658 117.878 309.708 117.878 310.646C117.878 311.585 118.519 312.364 119.308 312.352C120.098 312.341 121.506 313.383 122.456 314.654C123.395 315.925 125.329 316.966 126.749 316.955C128.168 316.944 129.542 316.302 129.805 315.512C130.068 314.722 130.332 314.986 130.377 316.085C130.446 317.459 131.27 317.997 133.044 317.802C134.99 317.585 135.7 316.669 135.963 314.081C136.238 311.299 137.646 309.753 143.404 305.918C147.307 303.319 155.388 298.499 161.375 295.201C167.35 291.904 172.764 288.824 173.394 288.366C174.023 287.908 182.517 284.141 192.281 279.997C202.033 275.852 214.144 271.181 219.18 269.623C224.217 268.055 231.165 265.96 234.633 264.964C238.09 263.979 246.332 261.838 252.948 260.212C259.552 258.586 267.279 256.789 270.118 256.205C272.945 255.632 278.611 253.549 282.709 251.591C286.795 249.622 294.007 245.649 298.734 242.752C303.45 239.844 308.865 236.363 310.753 234.989C312.642 233.627 315.984 231.692 318.194 230.707C320.391 229.711 325.29 228.108 329.068 227.147C332.845 226.185 338.637 225.383 341.945 225.372C346.902 225.349 347.955 225.704 347.978 227.353C347.989 228.452 346.57 231.085 344.83 233.203C343.09 235.321 338.443 239.58 334.505 242.649C330.567 245.729 327.351 248.763 327.351 249.393C327.351 250.022 328.255 250.812 329.354 251.144C330.453 251.488 337.023 250.412 343.948 248.763C350.874 247.126 359.253 244.916 362.561 243.863C367.517 242.294 368.833 242.214 370.001 243.45C371.146 244.664 371.031 244.824 369.417 244.309C368.238 243.931 367.403 244.263 367.391 245.099C367.38 245.889 366.098 247.687 364.529 249.106C362.973 250.526 361.691 252.713 361.691 253.972C361.691 255.232 362.458 256.525 363.408 256.835C364.346 257.144 366.441 256.125 368.044 254.545C369.646 252.976 371.443 251.682 372.05 251.682C372.645 251.682 373.137 250.904 373.137 249.965C373.137 248.763 373.904 248.431 375.713 248.877C377.132 249.221 378.998 249.61 379.879 249.736C380.749 249.862 381.654 251.259 381.883 252.827C382.111 254.407 381.734 255.953 381.047 256.262C380.177 256.663 380.257 257.625 381.333 259.456C382.18 260.899 384.149 262.33 385.729 262.662C387.297 262.983 391.418 264.082 394.886 265.101C398.343 266.12 404.661 268.158 408.908 269.623C413.155 271.089 417.15 272.028 417.779 271.719C418.409 271.41 418.924 270.242 418.924 269.143C418.924 268.043 417.321 262.765 415.352 257.407C413.384 252.049 410.854 245.099 409.721 241.95C407.855 236.787 407.821 235.837 409.343 232.219C410.27 230.009 411.003 228.085 410.968 227.925C410.934 227.765 410.911 227.124 410.911 226.494C410.911 225.864 411.678 225.349 412.628 225.349C413.864 225.349 414.345 224.078 414.345 220.769C414.345 218.25 414.597 216.19 414.917 216.19V216.19ZM365.125 315.444C362.286 317.115 357.272 320.458 353.964 322.863C350.656 325.279 344.223 331.633 339.656 337.003C335.089 342.372 330.842 346.735 330.212 346.712C329.583 346.677 325.199 344.181 320.483 341.17C315.755 338.159 308.029 334.095 303.313 332.137C298.585 330.19 292.152 327.797 289.005 326.836C285.857 325.863 279.927 324.168 275.841 323.069C270.278 321.569 263.788 321.054 250.086 321.019C235.057 320.974 230.638 321.351 225.476 323.126C222.008 324.305 215.826 326.859 211.74 328.805C206.337 331.358 201.633 334.999 194.559 342.098C187.324 349.345 183.822 353.936 180.971 359.878C178.419 365.202 176.542 371.545 175.385 378.77C173.84 388.399 173.829 391.158 175.317 402.813C176.656 413.393 177.755 417.537 180.914 423.903C183.078 428.265 187.702 435.215 191.193 439.36C194.684 443.504 200.099 448.805 203.212 451.141C206.326 453.477 213.125 456.82 218.322 458.583C223.519 460.335 227.777 462.419 227.765 463.209C227.765 463.999 226.346 465.338 224.617 466.208C222.889 467.067 219.237 470.284 216.502 473.364C213.766 476.432 209.622 481.791 207.287 485.248C204.952 488.706 201.633 495.667 199.916 500.705C197.386 508.159 196.768 512.097 196.642 521.886C196.516 530.542 197.042 535.832 198.531 540.778C199.664 544.556 201.873 550.223 203.441 553.372C205.009 556.52 208.501 562.188 211.202 565.966C213.903 569.744 218.871 575.481 222.225 578.709C225.59 581.949 231.039 586.449 234.347 588.727C237.655 591.006 246.148 595.723 253.234 599.215C260.319 602.707 269.717 606.794 274.124 608.294C278.531 609.794 288.318 612.302 295.873 613.859C303.427 615.427 316.557 617.282 325.062 618.003C333.555 618.713 346.696 619.022 354.25 618.679C361.805 618.335 371.592 617.5 375.999 616.801C380.406 616.114 388.647 613.962 394.314 612.015C399.98 610.08 408.221 606.428 412.628 603.921C417.035 601.413 422.701 597.875 425.219 596.055C427.738 594.234 433.369 589.3 437.731 585.087C442.103 580.862 448.971 573.557 452.989 568.828C457.007 564.111 463.073 555.856 466.462 550.51C469.85 545.163 474.497 536.141 476.798 530.473C480.655 520.947 481.01 519.047 481.56 505.285C481.926 496.137 481.64 487.756 480.816 483.531C480.095 479.753 477.84 473.387 475.825 469.38C473.799 465.372 469.815 459.19 466.954 455.641C464.104 452.091 458.174 446.71 453.79 443.699C449.406 440.676 445.503 437.322 445.125 436.257C444.702 435.066 445.789 432.284 447.918 429.147C449.841 426.307 452.52 421.419 453.87 418.27C455.232 415.121 457.293 406.626 458.46 399.379C460.326 387.78 460.406 384.987 459.136 375.907C458.346 370.24 456.915 362.764 455.954 359.306C454.992 355.848 452.325 349.402 450.036 344.994C447.231 339.579 442.904 334.003 436.689 327.809C431.137 322.256 424.796 317.218 420.641 315.054C416.863 313.085 410.419 310.646 406.333 309.639C402.235 308.631 395.802 307.841 392.024 307.876C388.247 307.921 381.802 308.963 377.716 310.177C373.618 311.402 367.952 313.772 365.125 315.444V315.444ZM21.6573 449.756C22.9622 449.756 24.2671 450.523 24.5876 451.473C24.8967 452.423 25.16 454.221 25.16 455.48C25.16 456.74 25.6751 457.77 26.3046 457.77C26.9342 457.77 27.8156 458.926 28.2506 460.346C28.697 461.766 29.1091 463.186 29.1777 463.495C29.2464 463.804 30.1622 465.876 31.2152 468.074C32.2683 470.273 33.7793 473.089 34.5805 474.314C35.3818 475.539 36.5494 477.28 37.1789 478.184C37.8085 479.089 42.4444 484.195 47.4809 489.519C52.5174 494.843 57.9202 499.881 59.4998 500.717C61.9952 502.033 62.3043 502.858 61.9609 507.185C61.7319 509.922 60.7017 513.07 59.6715 514.192C58.6299 515.314 58.172 516.219 58.6413 516.196C59.1107 516.173 58.8588 516.883 58.069 517.765C57.2792 518.635 56.249 519.15 55.7797 518.909C55.3104 518.658 54.9212 518.967 54.9212 519.596C54.9212 520.226 52.9066 519.585 50.457 518.165C47.996 516.746 44.6536 514.433 43.0167 513.013C41.3798 511.593 39.5255 510.437 38.8959 510.437C38.2664 510.437 35.2902 507.735 32.2912 504.426C29.2808 501.117 26.4534 497.259 25.9956 495.839C25.4805 494.248 25.595 493.481 26.3046 493.835C26.9342 494.145 27.827 493.767 28.2964 492.977C28.8534 492.03 28.6626 491.839 27.724 492.404C26.8999 492.897 25.698 492.45 24.8738 491.328C23.6719 489.702 23.7177 489.531 25.16 490.263C26.1444 490.767 26.0414 490.492 24.9196 489.622C23.8436 488.798 22.9393 487.722 22.9164 487.252C22.8935 486.783 23.5117 486.771 24.3015 487.241C25.2477 487.798 25.4385 487.607 24.8738 486.668C24.4045 485.89 23.5002 485.512 22.8707 485.821C22.2411 486.13 21.4513 485.489 21.1308 484.39C20.65 482.798 20.2379 482.672 19.1276 483.806C18.0058 484.939 17.3076 484.584 15.728 482.088C14.6291 480.36 13.7248 478.047 13.7248 476.948C13.7134 475.849 13.1983 475.207 12.5687 475.517C11.9391 475.826 11.2065 475.7 10.9547 475.23C10.6914 474.761 9.40943 471.67 5.70072 462.35L8.56238 460.632C11.218 459.041 11.4698 459.075 11.9964 461.205C12.3054 462.464 13.2097 463.506 13.9995 463.529C14.7893 463.541 16.3461 464.445 17.4678 465.533C18.5896 466.609 19.4939 468.407 19.471 469.506C19.4481 470.605 19.9518 471.773 20.5813 472.082C21.2567 472.425 21.4971 471.486 21.1537 469.792C20.8332 468.223 21.2223 466.128 22.0122 465.155C23.1225 463.781 23.1454 462.831 22.0923 460.861C21.3483 459.476 20.4211 456.408 20.0319 454.049C19.3909 450.248 19.5855 449.756 21.6573 449.756Z" fill="#D7040A" fill-opacity="0.99"/>
<path fill-rule="evenodd" clip-rule="evenodd" d="M244.363 0.0717548C246.48 -0.111434 246.503 -0.0198398 244.66 1.26248C243.34 2.20133 242.768 3.90728 242.943 6.38033C243.092 8.42976 243.733 10.1701 244.363 10.2616C244.992 10.3418 247.694 10.3418 250.372 10.2502C253.051 10.1701 255.237 10.4906 255.248 10.9601C255.26 11.4295 252.032 12.208 248.094 12.6889C244.157 13.1583 238.742 13.5476 236.064 13.5476C231.84 13.5362 231.176 13.2041 231.016 10.9601C230.924 9.54034 230.924 7.22758 231.016 5.80786C231.165 3.75843 230.558 3.19742 228.051 3.04858C226.323 2.95698 224.274 2.89974 223.496 2.92263C222.729 2.95698 222.088 2.52191 222.065 1.96089C222.053 1.39988 226.552 0.793062 232.058 0.609873C237.563 0.415234 243.104 0.174799 244.363 0.0717548V0.0717548ZM361.118 30.1262C371.191 30.2407 380.337 30.6758 381.436 31.0994C382.615 31.5459 383.496 33.1488 383.577 35.0036C383.668 37.3851 383.84 37.5912 384.252 35.8623C384.561 34.6029 385.145 33.2061 385.557 32.7596C385.969 32.3016 389.643 32.9656 393.741 34.2136C397.839 35.473 406.001 38.9307 411.884 41.9076C417.768 44.8729 423.686 48.4795 425.048 49.8992C427.406 52.3722 427.417 52.4524 425.219 51.7769C423.663 51.296 422.117 51.9372 420.378 53.7691C418.981 55.2575 417.688 57.6389 417.516 59.0586C417.344 60.4784 417.722 62.2415 418.351 62.9743C418.981 63.7071 416.921 62.2072 413.773 59.6426C410.625 57.0894 404.959 53.4485 401.182 51.5708C397.404 49.6816 392.116 47.4376 389.426 46.5789C386.736 45.7202 384.538 44.6325 384.561 44.1631C384.572 43.6937 384.195 43.5448 383.725 43.831C383.256 44.1173 378.872 43.6021 373.996 42.6861C369.12 41.7702 362.675 41.0145 359.687 41.026C356.7 41.0374 350.908 41.5984 346.81 42.2739C342.712 42.9495 338.214 43.7166 336.794 43.9799C335.02 44.3005 334.219 45.2508 334.23 47.0254C334.242 48.4451 334.883 51.3075 335.661 53.3798C336.851 56.5627 336.806 57.3298 335.363 58.2228C334.413 58.8182 332.101 59.2762 330.212 59.2533C327.442 59.2189 325.84 58.0053 321.914 52.9676C317.392 47.1742 317.186 46.6247 319.052 45.1592C320.151 44.289 322.211 43.2586 323.631 42.8693C325.256 42.4228 326.435 40.9916 326.836 39.0109C327.179 37.282 328.301 34.912 329.32 33.7442C330.396 32.5191 333.646 31.2597 336.989 30.7674C340.194 30.298 351.045 30.0003 361.118 30.1262V30.1262ZM146.219 59.5739C146.425 59.7571 145.418 61.7378 143.976 63.9818C142.522 66.2259 139.626 71.6414 133.731 83.9495L122.456 84.5219L123.269 80.8009C123.715 78.7515 124.093 75.2823 124.127 73.0726C124.173 69.2714 123.956 69.0424 119.949 68.699C116.218 68.3784 115.955 68.1723 117.66 66.8213C118.988 65.7679 120.396 65.6191 122.17 66.3175C123.589 66.89 126.291 67.3479 128.18 67.3479C130.068 67.3479 132.77 66.7411 134.189 65.9969C135.608 65.2527 137.76 63.7071 138.974 62.5621C140.187 61.4172 141.606 60.4784 142.121 60.4784C142.637 60.4784 143.255 61.1195 143.495 61.9095C143.793 62.8407 144.254 62.6346 144.88 61.2913C145.407 60.1578 146.002 59.3907 146.219 59.5739V59.5739ZM438.486 96.3033L443.294 97.3681C445.949 97.952 449.784 98.2611 455.542 97.6886V103.127C455.553 106.115 456.068 108.829 456.698 109.138C457.327 109.447 458.025 108.554 458.254 107.134C458.483 105.715 458.747 108.039 458.827 112.287C458.918 116.775 458.506 120.015 457.842 120.015C457.213 120.015 456.572 121.171 456.411 122.591C456.251 124.011 455.61 124.995 454.981 124.778C454.351 124.572 453.573 124.915 453.264 125.533C452.955 126.163 450.116 126.839 441.245 127.377L440.512 121.125C440.1 117.679 439.482 110.684 439.127 105.589L438.486 96.3033ZM22.8706 147.482L22.9163 164.083L18.0286 165.022C15.3387 165.526 12.7746 166.556 12.3282 167.312C11.8246 168.159 11.5041 167.804 11.4926 166.373C11.4697 165.114 11.195 160.866 10.863 156.927C10.4395 151.661 10.657 149.772 11.7101 149.76C12.664 149.745 12.5686 149.367 11.4239 148.627C10.2106 147.848 11.6185 147.516 22.8706 147.482ZM424.384 160.076C424.613 160.076 424.304 160.729 423.686 161.507C422.922 162.461 422.987 163.518 423.88 164.679C424.624 165.629 426.639 167.049 428.367 167.827C430.096 168.606 431.778 169.235 432.087 169.235C432.408 169.235 432.923 168.205 433.232 166.946C433.553 165.686 434.319 164.919 434.949 165.228C435.579 165.549 436.735 165.331 437.525 164.759C438.314 164.186 440.764 163.454 442.962 163.144C445.171 162.835 446.968 162.492 446.968 162.389C446.968 162.286 447.872 161.977 448.971 161.713C450.07 161.45 450.974 161.484 450.974 161.793C450.974 162.114 448.96 165.846 446.487 170.094C444.026 174.353 439.78 180.204 437.044 183.112C434.319 186.02 428.997 190.92 425.219 193.989C421.442 197.069 418.02 200.091 417.619 200.721C417.207 201.351 416.875 200.068 416.875 197.859C416.875 195.66 416.371 190.508 415.753 186.409C414.689 179.288 414.631 179.586 414.608 193.279C414.586 202.026 414.929 206.48 415.49 204.728C415.993 203.16 416.451 202.645 416.497 203.583C416.543 204.534 418.157 209.171 420.068 213.888C421.991 218.616 423.548 222.475 423.525 222.475C423.514 222.475 422.77 222.475 421.888 222.475C420.996 222.475 420.343 222.223 420.458 221.902C420.561 221.593 419.485 220.173 418.065 218.754C416.646 217.345 415.238 216.178 414.917 216.178C414.608 216.178 414.345 218.239 414.345 220.757C414.345 224.066 413.876 225.337 412.628 225.337C411.69 225.337 410.911 225.852 410.911 226.482C410.911 227.112 410.865 228.016 410.797 228.486C410.739 228.967 410.144 230.375 409.48 231.634C408.816 232.894 408.301 235.47 408.347 237.359C408.404 240.416 408.141 240.164 405.943 235.069C403.734 229.951 403.528 227.913 404.043 215.605C404.364 208.049 404.261 198.775 403.826 194.996C403.391 191.218 402.784 186.329 402.486 184.12C401.983 180.364 402.383 179.769 409.011 174.399C412.891 171.262 416.84 168.8 417.779 168.926C419.313 169.144 419.313 169.098 417.779 168.537C416.451 168.033 416.955 167.003 420.011 163.992C422.175 161.839 424.143 160.076 424.384 160.076V160.076ZM371.008 175.704C371.558 176.563 372.508 176.998 373.137 176.677C373.767 176.368 374.499 176.758 374.763 177.536C375.015 178.326 374.774 179.746 374.202 180.685C373.355 182.104 373.149 182.001 373.034 180.112C372.966 178.853 372.473 179.631 371.958 181.83C371.374 184.268 371.443 186.295 372.13 186.982C372.748 187.612 376.445 188.104 380.349 188.081C385.339 188.047 388.979 187.268 392.597 185.448C395.435 184.039 396.866 183.547 395.79 184.36C394.714 185.173 393.81 186.741 393.787 187.841C393.764 188.951 392.906 191.527 391.875 193.565C390.857 195.615 389.826 197.424 389.586 197.572C389.357 197.733 388.132 197.343 386.873 196.714C385.133 195.844 384.447 195.981 384.012 197.286C383.703 198.237 382.535 199.015 381.436 199.027C379.708 199.038 379.673 199.21 381.15 200.275C382.535 201.271 382.42 201.351 380.578 200.687C379.318 200.24 373.263 198.122 367.128 196.004C360.992 193.874 354.422 192.134 352.533 192.134C350.244 192.134 349.099 191.562 349.099 190.417C349.099 189.272 348.336 188.89 346.81 189.272C344.979 189.73 344.521 189.272 344.521 186.982C344.521 185.196 343.777 183.959 342.518 183.684C341.419 183.444 342.449 183.181 344.807 183.112C347.165 183.043 352.316 181.944 356.253 180.685C360.191 179.414 364.896 177.433 366.716 176.265C369.429 174.536 370.207 174.433 371.008 175.704V175.704ZM314.45 176.139C314.599 176.116 314.428 177.01 314.061 178.109C313.512 179.792 313.832 179.963 316.087 179.185C317.564 178.67 320.437 177.765 322.486 177.181C325.577 176.288 326.595 176.494 328.495 178.395C329.755 179.654 332.593 180.948 334.791 181.257C337.332 181.624 338.797 182.459 338.797 183.547C338.797 184.566 338.099 185.035 337.08 184.692C336.142 184.383 335.363 184.635 335.363 185.264C335.363 185.894 334.722 186.192 333.933 185.917C333.143 185.642 331.838 186.02 331.014 186.776C330.052 187.646 325.805 188.058 318.995 187.921C313.203 187.806 307.044 187.165 305.316 186.49C303.588 185.814 302.088 184.795 301.985 184.223C301.882 183.639 304.595 181.589 307.995 179.666C311.406 177.742 314.313 176.151 314.45 176.139ZM204.654 200.149C204.86 201.099 204.597 202.164 204.082 202.53C203.578 202.896 199.034 204.934 193.998 207.053C188.961 209.182 179.174 213.842 172.249 217.414C165.324 220.986 152.961 228.291 144.777 233.649C136.593 239.008 129.507 244.217 129.038 245.247C128.569 246.266 127.664 247.091 127.035 247.091C126.405 247.091 122.926 250.102 119.308 253.777C115.691 257.452 112.521 261.185 112.257 262.078C112.005 262.971 111.616 265.375 111.01 271.134L107.003 268.844C104.805 267.585 102.745 265.662 102.436 264.551C102.127 263.452 100.193 260.624 98.1436 258.254C96.0946 255.884 93.3818 253.743 92.1226 253.48C90.8635 253.216 89.3182 252.953 88.6886 252.907C88.0591 252.861 87.4066 251.922 87.2464 250.812C87.0747 249.713 86.9488 247.915 86.9602 246.805C86.9717 245.705 85.9415 244.549 84.6823 244.228C83.4232 243.919 82.6448 243.278 82.9424 242.797C83.2515 242.328 82.4846 240.908 81.2483 239.649C80.0121 238.389 79.2452 237.107 79.5428 236.786C79.829 236.477 78.7988 234.806 77.2306 233.065C75.525 231.188 74.3804 228.543 74.3804 226.482C74.3804 224.547 73.7623 223.013 72.9495 222.967C72.1597 222.933 72.5489 222.486 73.808 221.982C75.1015 221.479 76.3492 221.547 76.6697 222.166C76.9902 222.761 77.7571 223.242 78.3867 223.219C79.0162 223.208 81.855 224.238 84.6823 225.497C87.5211 226.768 92.157 228.6 94.9843 229.573C97.8231 230.547 103.741 232.298 108.148 233.466C112.555 234.634 117.191 235.607 118.45 235.619C119.709 235.63 125.123 232.848 130.469 229.424C135.826 226.001 141.492 222.177 143.06 220.929C145.269 219.166 145.533 218.536 144.205 218.147C143.266 217.872 140.427 216.968 137.909 216.132C135.391 215.296 131.27 214.22 124.173 212.892L129.61 213.109C132.598 213.224 135.047 213.189 135.047 213.029C135.047 212.88 134.372 212.102 133.537 211.312C132.323 210.167 134.979 209.961 146.986 210.27C158.502 210.567 163.401 210.213 168.243 208.747C171.711 207.705 175.569 206.411 176.828 205.885C178.087 205.358 181.692 204.133 184.84 203.16C187.988 202.187 193.654 200.721 197.432 199.908C203.418 198.626 204.345 198.66 204.654 200.149ZM92.9926 245.087C92.8323 246.198 93.7252 248.121 94.9843 249.381C96.2434 250.64 98.052 251.671 98.9906 251.671C99.9407 251.671 102.791 249.747 105.343 247.377C107.885 245.018 109.945 242.706 109.922 242.225C109.888 241.755 108.961 241.458 107.862 241.561C106.763 241.664 103.031 242.042 99.5744 242.419C94.7783 242.935 93.2215 243.564 92.9926 245.087ZM112.154 203.572C113.104 203.606 114.581 204.064 115.451 204.602C116.321 205.14 116.836 206.469 116.596 207.545C116.229 209.228 115.76 209.091 113.299 206.526C111.273 204.396 110.941 203.549 112.154 203.572ZM375.999 241.595C377.888 241.481 380.097 242.03 380.921 242.809C381.734 243.599 382.375 244.881 382.352 245.66C382.317 246.45 381.779 246.839 381.15 246.518C380.52 246.209 380.005 246.461 380.005 247.091C380.005 247.72 380.52 248.236 381.15 248.236C381.779 248.236 382.295 248.751 382.295 249.381C382.295 250.01 381.39 250.297 380.291 249.999C379.193 249.713 377.132 249.197 375.713 248.854C373.916 248.43 373.137 248.762 373.137 249.953C373.137 250.903 372.622 251.671 371.993 251.671C371.363 251.671 369.841 252.838 368.604 254.247C367.357 255.666 366.327 256.571 366.292 256.25C366.258 255.941 367.54 253.88 369.131 251.671C370.722 249.472 372.027 247.285 372.016 246.805C372.004 246.335 371.478 245.946 370.848 245.946C370.218 245.946 368.158 247.24 366.269 248.808C364.381 250.388 362.652 252.838 362.423 254.247C362.057 256.536 362 256.559 361.92 254.453C361.885 253.147 362.744 251.087 363.854 249.873C365.766 247.766 365.743 247.572 363.488 245.545C361.153 243.438 361.164 243.438 364.266 245.259C367.013 246.862 367.414 246.873 367.414 245.373C367.414 244.366 368.112 243.896 369.131 244.228C370.081 244.549 370.596 244.286 370.276 243.656C369.967 243.026 370.344 242.351 371.134 242.156C371.924 241.95 374.11 241.698 375.999 241.595V241.595ZM104.668 276.298L105.286 290.598L108.686 286.877C111.273 284.049 112.223 283.568 112.658 284.874C112.978 285.824 114.604 291.228 116.275 296.895C117.958 302.563 119.389 308.058 119.457 309.112C119.537 310.165 119.858 310.818 120.167 310.577C120.487 310.337 121.769 311.47 123.029 313.085C124.555 315.039 125.986 315.791 127.321 315.34C128.42 314.962 129.324 315.157 129.324 315.787C129.324 316.416 128.168 316.943 126.749 316.943C125.329 316.955 123.406 315.924 122.456 314.642C121.518 313.371 120.098 312.34 119.308 312.34C118.519 312.352 117.878 311.585 117.878 310.635C117.878 309.696 116.721 307.646 115.302 306.101C113.265 303.868 112.429 303.57 111.284 304.669C110.449 305.459 109.831 308.768 109.831 312.352C109.831 315.821 109.59 319.817 109.281 321.225C108.88 323.068 107.896 323.801 105.859 323.801C103.764 323.801 102.997 323.194 102.997 321.511C102.997 320.252 102.356 319.05 101.566 318.844C100.776 318.638 100.135 317.607 100.135 316.565C100.135 315.523 99.6889 314.539 99.1394 314.378C98.59 314.207 97.9261 316.645 97.6628 319.794C97.3881 322.943 96.3922 326.297 95.4422 327.236C93.9083 328.77 93.8053 328.702 94.515 326.664C94.95 325.404 94.7668 322.576 94.1029 320.366C93.439 318.168 92.0196 312.237 90.9436 307.2C89.799 301.807 88.0018 296.872 84.11 292.338L86.6855 294.617C89.261 296.895 89.261 296.895 91.6533 294.605C92.9582 293.346 94.8813 290.518 95.9115 288.308C96.9417 286.11 99.334 282.504 101.223 280.305L104.668 276.298ZM135.895 313.348C136.146 314.378 136.066 315.855 135.7 316.645C135.345 317.435 134.017 318.077 132.758 318.077C131.293 318.077 130.4 317.241 130.263 315.752C130.137 314.241 130.995 313.085 132.747 312.443C134.807 311.699 135.528 311.905 135.895 313.348V313.348ZM524.496 363.21C525.572 363.267 525.973 363.965 525.549 365.019C525.084 366.171 525.324 366.458 526.27 365.877C527.06 365.397 528.296 365.797 529.098 366.793C530.242 368.202 530.242 368.545 529.098 368.511C528.102 368.476 527.816 369.919 528.147 373.32C528.422 375.999 528.354 377.155 528.022 375.896C527.678 374.636 526.362 371.247 525.08 368.362C523.134 363.943 523.031 363.13 524.496 363.21V363.21ZM501.236 379.903L498.432 382.765C496.887 384.345 495.616 386.143 495.616 386.772C495.616 387.402 496.269 387.929 497.047 387.94C498.134 387.952 498.146 388.158 497.127 388.799C496.372 389.257 494.231 392.474 492.365 395.932C489.16 401.886 488.931 402.069 488.119 399.367C487.649 397.798 487.237 394.444 487.191 391.925C487.157 389.406 486.711 387.093 486.196 386.772C485.692 386.463 487.741 384.803 490.74 383.086C493.739 381.368 497.333 379.949 501.236 379.903ZM533.195 392.119C534.58 393.505 534.718 394.146 533.676 394.409C532.875 394.627 532.245 396.55 532.245 398.794C532.245 402.458 532.497 402.756 535.107 402.229C537.145 401.828 537.969 402.16 537.969 403.374C537.969 404.324 537.076 405.149 535.966 405.229C534.065 405.355 534.065 405.378 535.966 405.801C537.408 406.11 537.969 407.358 537.969 410.244C537.969 413.759 538.324 414.251 540.83 414.251C543.635 414.251 543.681 414.388 542.994 420.834C542.616 424.452 540.83 431.539 539.045 436.577C537.248 441.615 534.832 447.545 533.676 449.744C532.52 451.953 530.093 456.075 528.285 458.903C526.476 461.743 522.63 466.54 519.746 469.585C516.873 472.619 514.377 474.554 514.217 473.879C514.068 473.192 513.416 472.906 512.786 473.215C512.099 473.558 511.802 472.093 512.031 469.494C512.248 467.135 512.019 463.403 511.527 461.193C511.035 458.995 511.012 456.934 511.458 456.613C511.905 456.304 513.896 453.98 515.877 451.461C517.857 448.942 520.993 443.538 522.836 439.439C524.679 435.352 526.751 429.685 527.438 426.845C528.113 424.017 529.212 416.541 529.876 410.244C530.54 403.946 530.895 397.249 530.654 395.359C530.425 393.47 530.471 391.535 530.757 391.055C531.043 390.585 532.142 391.055 533.195 392.119V392.119ZM14.5145 410.816C15.0411 410.816 15.3387 411.595 15.167 412.533C14.9953 413.484 15.6363 414.514 16.5749 414.823C17.525 415.144 18.3377 416.815 18.3835 418.544C18.4407 420.273 18.6925 421.052 18.9558 420.262C19.2191 419.472 19.9517 419.094 20.5812 419.403C21.2108 419.724 21.7488 423.708 21.7717 428.276C21.7946 432.845 22.5272 439.932 23.3971 444.019C24.2785 448.118 24.7592 451.724 24.4731 452.034C24.1869 452.354 23.9694 451.965 23.9923 451.175C24.0038 450.385 22.985 449.744 21.7259 449.744C19.7342 449.744 19.5281 450.293 20.1005 454.037C20.4553 456.396 21.3596 459.464 22.1036 460.861C23.1453 462.819 23.1224 463.781 22.0121 465.155C21.2337 466.128 20.8445 468.211 21.1536 469.78C21.497 471.475 21.268 472.413 20.5812 472.07C19.9517 471.761 19.4251 470.593 19.4137 469.494C19.3908 468.395 18.4979 466.574 17.4105 465.452C16.3231 464.33 14.7892 463.426 13.9994 463.449C13.2211 463.471 12.3168 462.452 11.9963 461.193C11.4697 459.086 11.2293 459.041 8.84844 460.632C7.44051 461.582 5.87232 461.96 5.39156 461.491C4.89936 461.01 4.51017 460.231 4.53306 459.762C4.54451 459.292 5.58615 459.167 6.84528 459.476C8.10441 459.796 9.13461 459.533 9.13461 458.903C9.13461 458.273 7.9785 457.632 6.55912 457.472C4.44149 457.243 4.04086 456.579 4.30413 453.751C4.53306 451.278 4.33847 450.797 3.58299 452.034C2.75884 453.385 2.36965 453.007 1.78587 450.316C1.3738 448.427 1.31656 445.977 1.65996 444.878C1.99191 443.779 1.75153 442.622 1.12197 442.302C0.469512 441.981 -0.0112465 436.692 0.000200157 429.994C0.0116468 421.991 0.366492 418.808 1.12197 419.976C1.98047 421.304 2.25519 420.914 2.33531 418.258C2.41544 415.304 2.56424 415.144 3.41129 417.113C4.25834 419.071 4.40715 419.117 4.47583 417.399C4.52162 416.3 5.20841 415.476 5.98679 415.579C6.7766 415.682 8.58517 415.682 9.9931 415.579C11.5613 415.464 12.7632 414.503 13.0608 413.106C13.3241 411.846 13.9765 410.816 14.5145 410.816V410.816ZM71.5187 413.93C74.6665 414.251 79.5657 415.808 82.393 417.365C85.2318 418.922 88.4368 421.052 89.5357 422.094C90.6231 423.135 91.184 424.498 90.7834 425.128C90.3713 425.757 90.5087 425.895 91.081 425.425C91.6533 424.956 92.7751 425.082 93.5535 425.712C94.3433 426.341 96.1518 426.605 97.5598 426.318C100.078 425.803 100.067 425.849 97.2736 428.013C95.7054 429.238 93.7709 430.246 92.9811 430.257C92.2028 430.268 91.5503 429.513 91.5503 428.562C91.5503 427.624 91.0352 427.108 90.4056 427.418C89.7761 427.738 89.5243 428.505 89.8333 429.135C90.1538 429.765 89.6387 431.184 88.7001 432.284C87.2006 434.047 87.2006 434.573 88.6658 436.577C89.5815 437.836 90.3713 439.382 90.4056 440.012C90.44 440.642 89.0092 439.096 87.2235 436.577C85.4264 434.058 82.4502 430.978 80.6073 429.73C78.753 428.482 75.4449 426.628 73.2357 425.62C71.038 424.601 65.7496 423.055 61.4915 422.162C57.2333 421.281 53.765 420.033 53.7879 419.403C53.7993 418.773 53.1927 418.899 52.4257 419.689C51.6588 420.479 50.3653 421.12 49.5412 421.12C48.7285 421.12 48.3164 420.479 48.6255 419.689C48.946 418.899 50.8804 417.56 52.9179 416.69C54.9669 415.831 58.6985 414.72 61.2168 414.228C63.735 413.736 68.3709 413.598 71.5187 413.93ZM80.2296 464.628C80.7905 467.467 81.5116 470.81 81.8092 472.07C82.1183 473.329 81.6261 472.814 80.7218 470.925C79.8061 469.036 79.0964 465.693 79.1422 463.483C79.2108 459.67 79.2681 459.728 80.2296 464.628ZM96.3693 466.345C96.9989 466.735 97.4568 469.082 97.3995 471.566C97.3308 474.051 97.6628 476.066 98.1321 476.043C98.6129 476.031 99.6431 477.314 100.421 478.905C101.303 480.68 102.528 481.584 103.569 481.229C104.519 480.92 105.286 479.89 105.286 478.939C105.286 477.817 106.385 477.234 108.434 477.256C110.174 477.279 112.486 478.058 113.585 478.974C114.695 479.901 115.531 481.046 115.462 481.516C115.382 481.985 115.394 484.183 115.485 486.382C115.611 489.633 116.515 491.041 120.224 493.824C122.742 495.713 124.768 497.774 124.746 498.403C124.711 499.033 123.418 501.22 121.861 503.269C120.121 505.548 118.244 506.83 117.019 506.578C115.92 506.361 114.638 506.738 114.18 507.437C113.722 508.135 113.322 507.162 113.299 505.273C113.265 503.384 111.845 499.262 110.128 496.113C107.782 491.82 105.721 489.771 101.852 487.881C99.0249 486.496 95.0301 484.824 89.261 482.947L91.2641 478.333C92.3745 475.802 93.6565 473.742 94.1258 473.753C94.6066 473.776 95.0415 471.955 95.1102 469.711C95.1789 467.318 95.694 465.933 96.3693 466.345V466.345ZM16.2086 483.199C17.3991 484.744 18.0286 484.87 19.1275 483.771C20.2378 482.672 20.6614 482.798 21.1307 484.378C21.4626 485.477 22.241 486.13 22.8706 485.809C23.5001 485.5 24.4044 485.878 24.8623 486.668C25.427 487.622 25.2362 487.813 24.2899 487.24C23.5116 486.771 22.8019 486.714 22.7103 487.114C22.6187 487.515 23.5116 488.591 24.7135 489.496C25.9039 490.389 26.11 490.744 25.1599 490.251C23.7291 489.519 23.6833 489.69 24.8737 491.316C25.6635 492.381 26.8196 492.999 27.4492 492.679C28.0788 492.37 27.9529 493.16 27.163 494.453C25.778 496.732 25.6177 496.663 22.0807 492.45C20.0661 490.057 17.5822 486.553 16.5635 484.664C15.5333 482.775 15.3845 482.111 16.2086 483.199V483.199ZM63.7236 503.269C63.9182 504.059 64.7309 504.712 65.5092 504.723C66.2991 504.735 69.7788 506.086 73.2357 507.735C76.704 509.372 79.6687 510.906 79.8175 511.135C79.9778 511.375 79.1879 512.475 78.0662 513.574C76.5209 515.085 76.0287 517.341 76.063 522.733C76.0974 529.397 75.9257 529.889 73.5219 529.889C72.1139 529.889 70.0535 529.408 68.9432 528.813C67.8443 528.229 64.4333 526.557 61.3541 525.092C58.2864 523.638 55.4934 521.68 55.15 520.73C54.8066 519.791 53.971 518.657 53.2957 518.222C52.6203 517.787 52.4601 517.008 52.9408 516.505C53.4102 515.989 54.4403 516.447 55.2302 517.512C56.455 519.184 56.8327 519.23 58.0689 517.798C58.8587 516.894 59.122 516.173 58.6413 516.184C58.1719 516.207 58.6413 515.303 59.6829 514.18C60.736 513.058 61.7318 510.345 61.915 508.135C62.0867 505.937 62.4873 503.613 62.8078 502.983C63.1283 502.33 63.5175 502.445 63.7236 503.269ZM111.296 529.992C111.776 529.935 112.36 530.53 112.601 531.32C112.864 532.167 114.638 532.66 120.739 532.282L117.305 533.244C115.417 533.77 112.2 534.263 110.151 534.331C106.557 534.469 106.5 534.4 108.434 532.282C109.544 531.068 110.826 530.038 111.296 529.992V529.992ZM124.608 534.469C125.169 534.469 125.421 534.984 125.18 535.614C124.94 536.243 125.261 536.759 125.89 536.759C126.52 536.759 127.355 538.43 127.756 540.48C128.145 542.529 129.359 545.494 130.446 547.063C131.533 548.643 132.781 551.734 133.216 553.933C133.651 556.142 133.777 557.688 133.479 557.367C133.193 557.058 130.847 551.906 128.26 545.918C125.684 539.941 123.578 534.915 123.589 534.755C123.601 534.595 124.059 534.469 124.608 534.469ZM141.355 570.534L145.464 573.969C147.73 575.858 149.402 577.667 149.196 577.976C148.978 578.297 149.321 579.19 149.94 579.98C150.569 580.77 151.725 581.067 152.504 580.655C153.305 580.243 153.557 580.369 153.087 580.941C152.618 581.514 152.881 582.762 153.66 583.701C154.93 585.235 154.839 585.235 152.927 583.701C151.748 582.762 148.658 579.407 146.059 576.259L141.355 570.534Z" fill="#D7040A"/>
<path d="M329.926 59.3104C331.975 59.3104 334.39 58.8181 335.295 58.2227C336.386 57.5129 337.221 57.6159 337.801 58.5319C338.282 59.2875 339.736 63.9016 341.029 68.779C343.181 76.8966 343.239 78.259 340.251 91.9639L338.374 87.6704C337.355 85.3118 336.519 82.7357 336.531 81.9457C336.542 81.1557 335.421 77.6866 334.024 74.2174C332.628 70.7483 330.292 65.9854 326.206 59.3333L329.926 59.3104Z" fill="#D7040A" fill-opacity="0.96"/>
<path d="M127.607 83.9493C131.064 83.9493 133.891 83.4341 133.868 82.8044C133.857 82.1747 134.052 81.9114 134.326 82.2319C134.59 82.5525 134.097 86.1591 133.227 90.2465C132.369 94.3339 131.648 102.451 131.636 108.279C131.625 114.107 132.129 120.152 132.758 121.732C133.521 123.64 133.521 124.594 132.758 124.594C132.129 124.594 130.331 122.923 128.775 120.873C127.218 118.824 124.894 113.798 123.635 109.71C122.147 104.89 121.323 99.0395 121.311 83.9493H127.607Z" fill="#D7040A" fill-opacity="0.96"/>
<path d="M331.494 152.645C334.299 147.608 336.565 143.096 336.542 142.627C336.531 142.158 336.817 141.768 337.195 141.768C337.584 141.768 337.653 146.016 337.366 151.214C337.069 156.412 336.29 161.69 335.615 162.95C334.951 164.209 333.154 167.816 331.62 170.964C330.086 174.113 329.045 177.467 329.308 178.406C329.674 179.734 329.445 179.689 328.278 178.212C327.087 176.677 325.966 176.494 322.772 177.273C320.563 177.811 317.552 178.67 316.076 179.185C313.706 180.021 313.512 179.86 314.336 177.834C315.103 175.979 314.965 175.75 313.592 176.632C312.665 177.227 315.16 174.136 319.155 169.762C323.138 165.388 328.701 157.683 331.494 152.645Z" fill="#D7040A" fill-opacity="0.96"/>
<path d="M371.992 171.777C374.82 169.247 378.139 166.029 379.353 164.61L381.573 162.034L381.928 165.068C382.134 166.739 381.138 170.472 379.719 173.368C378.3 176.265 376.445 179.231 375.587 179.952C374.728 180.685 374.156 180.765 374.293 180.124C374.442 179.494 374.488 178.337 374.419 177.547C374.339 176.757 373.767 176.38 373.137 176.689C372.508 176.998 371.729 176.483 371.42 175.544C370.974 174.204 370.401 174.101 368.845 175.097C367.746 175.796 369.154 174.307 371.992 171.777Z" fill="#D7040A" fill-opacity="0.96"/>
<path d="M294.831 185.264C296.033 185.264 298.551 184.268 300.44 183.066C302.328 181.852 304.389 180.833 305.018 180.811C305.648 180.788 305.27 181.269 304.16 181.875C303.061 182.482 302.157 183.501 302.157 184.131C302.157 184.761 303.324 185.757 304.732 186.341C306.712 187.165 305.511 187.44 299.581 187.486C294.911 187.531 292.015 187.108 292.255 186.421C292.461 185.791 293.629 185.276 294.831 185.264Z" fill="#D7040A" fill-opacity="0.96"/>
<path d="M118.725 211.22C117.557 210.773 116.721 209.274 116.721 207.602C116.721 206.022 117.111 204.728 117.58 204.705C118.061 204.694 120.373 205.461 122.731 206.423C125.1 207.384 128.706 208.174 130.743 208.186C132.792 208.197 135.242 208.735 136.181 209.365C137.428 210.212 136.959 210.315 134.464 209.72C131.236 208.964 131.144 209.033 133.033 210.831C134.143 211.884 135.036 212.88 135.036 213.04C135.036 213.201 132.335 213.224 129.026 213.109C125.73 212.983 122.891 212.857 122.731 212.823C122.582 212.777 122.067 212.582 121.586 212.365C121.117 212.159 119.835 211.644 118.725 211.22Z" fill="#D7040A" fill-opacity="0.96"/>
<path d="M496.806 384.826C497.596 383.441 499.061 381.78 500.069 381.139C501.076 380.498 503.835 379.971 506.193 379.949C509.26 379.926 510.485 380.406 510.485 381.632C510.485 382.616 508.677 383.887 506.193 384.631C503.835 385.341 501.133 386.612 500.183 387.436C499.245 388.272 497.779 388.593 496.921 388.158C495.673 387.505 495.65 386.875 496.806 384.826Z" fill="#D7040A" fill-opacity="0.96"/>
<path d="M46.5078 422.116C45.7752 421.716 45.5921 420.811 46.0957 420.113C46.5994 419.414 47.435 418.842 47.9615 418.842C48.488 418.842 48.717 419.357 48.4766 419.987C48.2362 420.617 48.717 421.132 49.5297 421.132C50.3538 421.132 51.6473 420.491 52.4142 419.701C53.5246 418.556 53.7993 418.556 53.7878 419.701C53.7764 420.491 55.1843 421.281 56.9128 421.464C58.6526 421.647 57.3134 422.036 53.9481 422.322C50.5828 422.609 47.2289 422.517 46.5078 422.116Z" fill="#D7040A" fill-opacity="0.96"/>
<path d="M243.218 14.3711C240.7 14.6115 236.831 14.6115 234.633 14.3711C232.435 14.1192 234.484 13.9246 239.211 13.9246C243.939 13.9246 245.736 14.1192 243.218 14.3711Z" fill="#D7040A" fill-opacity="0.75"/>
<path d="M124.173 55.5886C121.655 55.8291 118.049 55.8291 116.16 55.5772C114.272 55.3253 116.332 55.1192 120.739 55.1306C125.146 55.1306 126.691 55.3367 124.173 55.5886Z" fill="#D7040A" fill-opacity="0.75"/>
<path d="M9.96998 154.362C9.7296 157.201 9.53501 155.392 9.52356 150.355C9.52356 145.317 9.71815 142.993 9.96998 145.202C10.2104 147.412 10.2104 151.522 9.96998 154.362Z" fill="#D7040A" fill-opacity="0.75"/>
<path d="M339.369 646.385C334.962 646.602 328.014 646.602 323.917 646.385C319.819 646.167 323.436 645.984 331.929 645.984C340.423 645.984 343.776 646.167 339.369 646.385Z" fill="#D7040A" fill-opacity="0.75"/>
<path d="M294.155 189.546C291.957 189.786 287.837 189.786 284.998 189.546C282.159 189.305 283.968 189.111 289.004 189.099C294.041 189.099 296.353 189.294 294.155 189.546Z" fill="#D7040A" fill-opacity="0.16"/>
<path d="M510.187 507.002C509.947 509.841 509.752 508.032 509.741 502.995C509.741 497.957 509.936 495.644 510.187 497.843C510.428 500.041 510.428 504.163 510.187 507.002Z" fill="#D7040A" fill-opacity="0.39"/>
<path d="M362.893 254.716C362.927 253.857 364.198 251.797 365.709 250.136C367.22 248.465 368.925 247.102 369.509 247.102C370.093 247.102 370.482 247.492 370.367 247.961C370.253 248.43 369.417 250.228 368.502 251.957C367.586 253.674 365.938 255.357 364.839 255.678C363.614 256.033 362.859 255.655 362.893 254.716Z" fill="#D7040A" fill-opacity="0.65"/>
<path d="M133.594 108.564C133.353 111.404 133.159 109.343 133.159 103.984C133.159 98.6262 133.353 96.3134 133.594 98.8323C133.834 101.351 133.834 105.725 133.594 108.564Z" fill="#D7040A" fill-opacity="0.31"/>
<path d="M438.085 118.296C437.845 121.445 437.65 119.132 437.65 113.144C437.65 107.156 437.845 104.58 438.085 107.419C438.314 110.259 438.314 115.148 438.085 118.296Z" fill="#D7040A" fill-opacity="0.31"/>
<path d="M23.706 429.718C23.4542 432.236 23.2481 430.691 23.2481 426.283C23.2367 421.875 23.4427 419.814 23.6946 421.703C23.9464 423.592 23.9464 427.199 23.706 429.718Z" fill="#D7040A" fill-opacity="0.31"/>
<path d="M460.966 124.023C460.714 126.542 460.508 124.996 460.508 120.588C460.497 116.18 460.703 114.119 460.955 116.008C461.207 117.898 461.207 121.504 460.966 124.023Z" fill="#D7040A" fill-opacity="0.39"/>
<path d="M337.08 332.343C339.598 331.438 342.414 329.927 343.33 328.976C344.257 328.026 345.218 327.248 345.47 327.248C345.722 327.248 343.673 329.698 340.914 332.686C338.156 335.674 334.745 339.544 333.337 341.273C331.94 343.002 330.269 344.422 329.64 344.422C329.01 344.422 325.793 342.601 322.485 340.391C319.177 338.17 314.29 335.331 311.611 334.094C308.933 332.846 306.746 331.564 306.746 331.255C306.746 330.946 307.261 330.946 307.891 331.255C308.521 331.564 309.287 331.312 309.608 330.682C309.917 330.053 310.947 329.537 311.897 329.537C312.847 329.537 313.614 330.316 313.614 331.255C313.614 332.503 314.69 332.892 317.609 332.686C321.261 332.423 321.604 332.663 321.615 335.548C321.627 338.193 322.039 338.617 324.202 338.193C325.622 337.918 328.197 337.403 329.926 337.048C331.654 336.693 332.948 335.857 332.787 335.193C332.627 334.529 334.562 333.247 337.08 332.343Z" fill="#D7040A"/>
<path d="M454.648 421.132C456.594 417.033 458.231 413.106 458.3 412.385C458.368 411.629 459.845 412.098 461.848 413.53C463.737 414.869 466.095 416.747 467.079 417.697C468.338 418.899 469.082 422.54 469.54 429.719C469.906 435.386 470.776 442.725 471.463 446.034C472.207 449.584 473.775 453.007 475.298 454.392C476.786 455.755 478.72 456.476 479.876 456.11C481.136 455.709 482.166 456.224 482.658 457.484C483.116 458.663 482.887 459.602 482.086 459.773C481.342 459.934 480.735 461.09 480.735 462.35C480.735 463.689 481.685 464.88 483.024 465.212C484.283 465.521 485.05 466.3 484.741 466.929C484.36 467.693 483.597 467.693 482.452 466.929C481.307 466.166 480.544 466.166 480.163 466.929C479.842 467.559 479.876 469.494 480.231 471.223C480.609 473.043 479.029 471.005 476.511 466.414C474.119 462.029 469.574 455.64 466.427 452.217C463.279 448.794 458.002 444.26 454.694 442.153C451.386 440.035 448.352 437.401 447.94 436.302C447.528 435.169 448.055 433.051 449.165 431.436C450.241 429.868 452.714 425.231 454.648 421.132Z" fill="#D7040A"/>
<path d="M478.114 455.48C477.862 455.171 477.942 451.45 478.285 447.225C478.869 440.252 479.087 439.726 480.689 441.409C481.662 442.439 482.28 444.615 482.063 446.229C481.845 447.855 482.486 450.087 483.494 451.186C484.489 452.286 485.314 453.705 485.314 454.335C485.314 454.965 484.547 455.48 483.597 455.48C482.647 455.48 481.662 454.839 481.399 454.049C481.033 452.984 480.609 453.064 479.739 454.335C479.098 455.285 478.365 455.789 478.114 455.48Z" fill="#D7040A"/>
<path d="M213.445 463.208C214.395 462.739 214.967 461.571 214.715 460.632C214.315 459.121 214.773 459.132 218.436 460.701C220.736 461.685 222.865 462.739 223.186 463.036C223.495 463.334 220.691 466.517 216.948 470.124C213.193 473.719 210.995 475.631 212.048 474.371C213.101 473.112 213.983 471.692 213.994 471.223C214.017 470.753 213.514 470.627 212.884 470.936C212.254 471.246 211.991 470.742 212.312 469.792C212.621 468.841 213.525 468.086 214.315 468.109C215.231 468.131 215.013 467.41 213.731 466.105C211.968 464.33 211.934 463.952 213.445 463.208Z" fill="#D7040A"/>
<path d="M204.013 480.004C205.203 480.405 206.302 479.981 206.714 478.962C207.103 478.012 207.882 477.497 208.431 477.818C208.992 478.127 208.42 479.409 207.161 480.668C205.902 481.928 205.123 483.473 205.444 484.103C205.753 484.733 205.249 485.511 204.299 485.821C203.349 486.13 202.834 486.908 203.154 487.538C203.463 488.168 202.96 489.198 202.01 489.828C201.037 490.48 200.659 491.591 201.14 492.404C201.769 493.457 201.552 493.537 200.304 492.69C198.976 491.786 198.793 491.957 199.457 493.549C199.961 494.751 199.835 495.324 199.148 494.98C198.518 494.671 198.061 492.988 198.129 491.259C198.198 489.53 199.102 486.141 200.132 483.725C201.552 480.428 202.502 479.512 204.013 480.004Z" fill="#D7040A"/>
<path d="M109.292 522.207C105.995 522.836 105.858 522.687 105.732 518.646C105.606 514.581 105.663 514.524 107.449 516.791C108.456 518.085 110.322 519.504 111.581 519.951C112.84 520.398 113.607 520.947 113.298 521.165C112.978 521.382 111.181 521.852 109.292 522.207Z" fill="#D7040A"/>
<path d="M349.672 621.196C345.894 621.425 339.965 621.425 336.508 621.196C333.051 620.967 336.13 620.783 343.376 620.783C350.622 620.783 353.449 620.967 349.672 621.196Z" fill="#D7040A" fill-opacity="0.75"/>
<path d="M253.519 318.922C251.001 319.163 247.396 319.163 245.507 318.911C243.618 318.659 245.679 318.453 250.085 318.464C254.492 318.464 256.038 318.67 253.519 318.922Z" fill="#D7040A" fill-opacity="0.85"/>
<path d="M348.527 620.041C346.009 620.281 341.373 620.281 338.225 620.052C335.077 619.812 337.138 619.617 342.804 619.606C348.47 619.606 351.045 619.801 348.527 620.041Z" fill="#D7040A" fill-opacity="0.39"/>
<path d="M173.657 394.797C173.416 397.637 173.222 395.828 173.21 390.79C173.21 385.752 173.405 383.428 173.657 385.638C173.897 387.836 173.897 391.958 173.657 394.797Z" fill="#D7040A" fill-opacity="0.31"/>
<path d="M482.727 507.573C482.498 511.351 482.315 508.523 482.315 501.276C482.315 494.028 482.498 490.949 482.727 494.406C482.956 497.864 482.956 503.795 482.727 507.573Z" fill="#D7040A" fill-opacity="0.31"/>
<path d="M336.118 553.658C335.866 552.742 338.007 551.769 342.128 550.944C345.642 550.234 349.431 549.593 350.529 549.513C351.937 549.41 352.533 550.212 352.533 552.227C352.533 553.807 352.281 555.856 351.96 556.806C351.651 557.757 350.358 558.524 349.099 558.524C347.416 558.524 346.809 559.291 346.809 561.386C346.809 563.046 348.137 565.473 349.957 567.145C352.018 569.057 352.51 570.03 351.388 569.996C350.438 569.973 348.767 570.992 347.668 572.251C346.569 573.522 344.898 574.553 343.948 574.553C342.998 574.553 342.254 573.648 342.276 572.549C342.322 570.752 342.139 570.729 340.434 572.263C339.003 573.557 337.309 573.774 333.52 573.122C330.761 572.652 327.339 571.484 323.344 568.805L325.919 568.817C327.339 568.828 328.495 568.313 328.495 567.683C328.495 567.053 329.788 566.275 331.356 565.966C333.783 565.485 334.046 565.05 333.073 563.103C332.31 561.577 332.31 560.814 333.073 560.814C333.703 560.814 333.886 560.172 333.474 559.382C333.062 558.592 333.577 557.31 334.619 556.52C335.66 555.73 336.336 554.448 336.118 553.658Z" fill="#D7040A" fill-opacity="0.99"/>
<path d="M390.1 391.639C389.997 391.146 391.932 389.887 394.393 388.834C397.06 387.689 402.039 386.876 406.618 386.841C411.906 386.807 416.244 387.54 420.354 389.189C423.662 390.505 428.286 392.955 430.633 394.627C432.979 396.299 434.914 397.924 434.925 398.234C434.937 398.554 427.096 398.806 417.492 398.806C405.668 398.806 399.2 399.264 397.461 400.237C396.041 401.027 394.656 401.542 394.381 401.382C394.107 401.222 393.718 399.161 393.523 396.802C393.317 394.306 392.561 392.509 391.737 392.509C390.947 392.509 390.215 392.12 390.1 391.639Z" fill="#D7040A"/>
<path d="M241.5 406.603C243.698 405.641 247.819 404.187 250.658 403.397C253.485 402.596 259.151 401.909 263.249 401.863C267.335 401.817 273.001 402.481 275.84 403.34C278.668 404.199 282.536 405.676 284.425 406.626C286.314 407.576 289.542 410.061 291.602 412.167C293.663 414.263 295.334 416.369 295.322 416.839C295.311 417.308 294.269 417.446 293.01 417.125C291.751 416.816 290.721 416.816 290.721 417.125C290.721 417.446 292.14 418.27 293.869 418.98C295.597 419.678 296.501 420.468 295.872 420.709C295.242 420.96 292.152 420.342 289.004 419.335C285.856 418.327 279.412 416.85 274.696 416.049C267.862 414.881 264.245 414.869 256.953 415.98C251.917 416.747 243.412 419.06 238.066 421.121C232.709 423.182 227.421 425.7 226.299 426.719C225.177 427.738 224.273 428.185 224.296 427.716C224.319 427.246 226.242 424.521 228.566 421.67C232.709 416.598 232.744 416.507 229.71 417.663C228.016 418.316 226.356 418.842 226.047 418.842C225.727 418.842 228.176 416.484 231.485 413.61C234.793 410.725 239.291 407.576 241.5 406.603Z" fill="#D7040A"/>
<path d="M379.879 461.205C381.63 459.007 385.087 456.076 387.548 454.702C390.066 453.293 394.141 452.16 396.888 452.125C400.677 452.057 402.028 452.561 402.978 454.392C403.813 456.018 403.836 457.873 403.024 460.403C402.188 463.025 400.46 464.777 396.934 466.552C394.233 467.926 388.67 470.616 384.583 472.54C380.485 474.452 376.502 476.043 375.712 476.055C374.922 476.077 374.281 475.448 374.281 474.658C374.281 473.868 374.819 471.418 375.483 469.219C376.136 467.021 378.116 463.403 379.879 461.205Z" fill="#D7040A"/>
<path d="M313.717 461.377C314.381 460.529 316.567 459.419 318.57 458.915C320.562 458.411 323.229 457.965 324.488 457.919C325.747 457.862 329.09 458.365 331.929 459.018C334.756 459.671 338.751 461.468 340.8 463.002C342.849 464.525 346.054 468.235 347.931 471.223C349.808 474.211 351.354 477.818 351.365 479.237C351.376 480.772 350.69 481.814 349.671 481.814C348.721 481.814 347.691 481.298 347.382 480.669C347.061 480.039 343.971 478.757 340.514 477.806C337.045 476.856 331.253 476.158 327.636 476.249C324.019 476.341 319.635 475.826 317.907 475.104C316.178 474.383 314.244 472.769 313.614 471.509C312.985 470.25 312.481 467.8 312.492 466.071C312.492 464.342 313.053 462.224 313.717 461.377Z" fill="#D7040A"/>
<path d="M409.972 474.807C412.685 473.776 416.977 472.425 419.495 471.795C422.014 471.166 425.493 470.593 427.222 470.513C428.95 470.433 433.586 471.143 437.524 472.093C442.549 473.318 446.155 475.104 449.657 478.104C452.393 480.463 455.873 484.962 457.395 488.111C458.917 491.294 460.463 497.144 460.875 501.277C461.264 505.376 461.264 510.528 460.863 512.727C460.188 516.448 459.81 516.757 450.974 517.306L450.951 507.861C450.928 500.934 450.333 497.19 448.719 493.835C447.517 491.316 445.845 488.489 445.01 487.538C444.174 486.588 442.469 484.939 441.221 483.852C439.973 482.775 435.99 481.356 432.373 480.703C427.096 479.753 424.372 479.89 418.637 481.378C414.699 482.397 410.842 483.943 410.052 484.813C409.079 485.89 408.163 486.038 407.19 485.26C406.4 484.63 405.336 484.504 404.821 484.974C404.306 485.443 404.168 484.916 404.535 483.817C404.889 482.718 405.027 481.814 404.832 481.814C404.638 481.814 403.482 482.626 402.257 483.623C401.032 484.607 399.303 485.26 398.411 485.054C397.3 484.79 398.09 483.405 400.895 480.669C403.161 478.47 407.247 475.826 409.972 474.807Z" fill="#D7040A"/>
<path d="M243.217 492.427L246.079 491.202C247.647 490.526 249.192 489.954 249.513 489.943C249.822 489.92 251.367 490.607 255.809 492.988L252.375 493.458C250.486 493.721 247.647 493.595 243.217 492.427Z" fill="#D7040A"/>
<path d="M233.041 501.541C234.186 499.823 236.178 497.27 237.46 495.862C238.742 494.454 240.379 493.297 241.1 493.286C241.821 493.274 240.653 495.072 238.524 497.27C236.384 499.468 234.793 502.182 234.987 503.281C235.182 504.38 235.823 505.205 236.418 505.124C237.013 505.033 236.464 507.197 235.205 509.933C233.946 512.669 232.652 514.936 232.343 514.971C232.023 514.994 231.588 512.692 231.359 509.841C231.072 506.189 231.565 503.739 233.041 501.541Z" fill="#D7040A"/>
<path d="M254.984 522.333C251.39 517.993 248.437 513.677 248.437 512.727C248.429 511.597 249.181 511.979 250.692 513.872C252.798 516.505 253.05 516.574 253.954 514.662C254.71 513.07 255.351 512.876 256.804 513.803C257.823 514.478 259.059 514.799 259.529 514.536C259.998 514.272 262.539 515.692 265.161 517.684C267.782 519.676 273.448 524.05 277.752 527.393C282.056 530.736 290.721 535.957 297.016 539.003C303.312 542.06 312.069 545.643 316.476 546.983C320.883 548.323 327.064 549.468 330.212 549.525C333.36 549.582 337.48 550.029 342.803 551.38L339.083 551.517C336.164 551.62 335.546 552.032 336.221 553.406C336.782 554.54 336.324 555.639 334.905 556.555C333.703 557.322 333.062 558.593 333.474 559.383C333.886 560.173 333.703 560.814 333.073 560.814C332.31 560.814 332.31 561.577 333.073 563.104C334.046 565.05 333.783 565.485 331.356 565.966C329.777 566.287 328.495 567.054 328.495 567.683C328.495 568.313 327.339 568.84 325.919 568.851C323.836 568.863 323.676 569.08 325.061 569.973C325.999 570.58 326.263 571.072 325.633 571.061C325.003 571.05 321.913 570.145 318.765 569.034C315.617 567.935 308.921 564.958 303.884 562.44C298.848 559.921 290.355 554.528 284.998 550.464C279.652 546.399 272.177 540.182 268.4 536.644C264.623 533.106 258.59 526.672 254.984 522.333Z" fill="#D7040A"/>
<path d="M354.536 548.139C355.635 548.094 358.576 547.12 361.06 545.987L365.582 543.938L367.184 547.51C368.066 549.468 369.382 551.448 370.103 551.906C370.981 552.456 370.473 553.41 368.581 554.769C367.013 555.891 362.892 557.883 359.423 559.211C355.669 560.642 352.99 562.382 352.819 563.504C352.578 565.119 353.78 565.394 361.118 565.394C365.834 565.394 372.919 564.558 376.857 563.539C380.794 562.52 386.586 560.402 389.734 558.833C392.882 557.253 397.644 554.219 400.322 552.089C403.001 549.96 405.702 548.483 406.332 548.792C406.961 549.113 407.213 548.597 406.904 547.647C406.584 546.697 406.904 545.54 407.602 545.071C408.312 544.602 409.273 544.979 409.766 545.93C410.258 546.88 411.219 547.258 411.929 546.788C412.627 546.319 413.2 546.445 413.2 547.075C413.2 547.704 411.391 550.28 409.193 552.799C406.984 555.318 405.187 557.894 405.187 558.524C405.187 559.154 406.343 559.669 407.763 559.669C409.182 559.657 413.28 558.249 416.885 556.52C420.583 554.734 423.193 553.99 422.895 554.803C422.597 555.593 422.769 556.234 423.273 556.234C423.776 556.234 424.681 555.73 425.276 555.101C425.986 554.368 427.062 554.769 428.366 556.246C430.301 558.455 430.232 558.604 426.077 561.18C423.719 562.646 420.239 564.684 418.351 565.703C416.462 566.722 413.108 568.313 410.91 569.229C408.701 570.156 404.065 571.725 400.608 572.733C397.14 573.74 391.222 574.793 387.445 575.068C383.667 575.343 376.971 575.927 372.564 576.362C368.157 576.786 360.042 576.82 344.52 575.698L346.569 572.836C347.691 571.267 349.625 569.996 350.861 570.008C352.842 570.042 352.739 569.71 349.957 567.145C348.137 565.474 346.809 563.046 346.809 561.386C346.809 559.291 347.416 558.524 349.099 558.524C350.358 558.524 351.64 557.757 351.96 556.807C352.269 555.856 352.533 553.544 352.533 551.654C352.533 549.181 353.093 548.197 354.536 548.139Z" fill="#D7040A"/>
<path d="M374.281 408.789C375.46 405.091 378.116 401.244 382.717 396.527C386.552 392.6 389.631 390.264 389.872 391.077C390.112 391.867 390.948 392.508 391.737 392.508C392.63 392.497 393.271 394.443 393.454 397.66C393.649 401.175 393.283 402.812 392.31 402.801C391.52 402.79 388.349 404.461 385.259 406.522C382.168 408.572 378.299 411.159 376.674 412.247C375.037 413.346 373.446 414.239 373.137 414.216C372.828 414.193 373.331 411.754 374.281 408.789Z" fill="#D7040A" fill-opacity="0.96"/>
<path d="M227.192 417.823C226.563 417.811 226.746 416.998 227.604 416.025C228.463 415.063 229.401 414.262 229.688 414.262C229.974 414.262 229.722 415.132 229.127 416.197C228.211 417.823 228.428 418.006 230.477 417.307C232.458 416.643 232.114 417.456 228.623 421.67C226.265 424.52 224.319 427.245 224.296 427.715C224.273 428.184 225.303 427.543 226.585 426.284C227.867 425.024 229.195 424.257 229.527 424.566C229.859 424.875 227.661 426.799 224.651 428.837C221.641 430.863 218.538 432.535 217.749 432.558C216.959 432.569 216.501 431.94 216.718 431.15C216.947 430.36 218.435 427.509 220.038 424.795C221.629 422.093 224.159 419.414 225.635 418.864C227.123 418.303 227.822 417.834 227.192 417.823Z" fill="#D7040A" fill-opacity="0.96"/>
<path d="M293.869 418.899C292.14 418.235 290.709 417.445 290.709 417.136C290.698 416.826 292.06 416.701 293.731 416.849C295.54 417.01 297.268 418.155 298.035 419.689C298.734 421.097 299.043 422.517 298.734 422.849C298.424 423.181 297.131 423.112 295.872 422.711C293.972 422.105 293.869 421.83 295.3 421.051C296.65 420.307 296.353 419.861 293.869 418.899Z" fill="#D7040A" fill-opacity="0.96"/>
<path d="M391.085 492.117C392.71 489.278 395.103 485.809 396.373 484.389C397.655 482.969 398.914 481.813 399.166 481.813C399.418 481.813 398.949 482.614 398.113 483.576C396.843 485.064 396.877 485.351 398.319 485.351C399.269 485.351 400.654 484.549 401.41 483.576C402.154 482.614 403.31 481.813 403.985 481.813C404.649 481.813 404.924 482.58 404.615 483.53C404.306 484.48 404.558 484.984 405.187 484.675C405.817 484.366 406.595 484.618 406.904 485.248C407.213 485.877 406 488.327 404.191 490.686C402.394 493.045 399.887 497.04 398.628 499.559C397.369 502.078 393.878 511.1 390.867 519.596C387.845 528.091 384.343 536.861 383.084 539.059C381.813 541.258 378.677 545.219 376.101 547.852C373.228 550.795 370.847 552.341 369.932 551.86C369.107 551.436 367.951 549.41 367.356 547.36C366.646 544.933 365.776 543.902 364.838 544.395C364.048 544.818 365.914 542.883 368.97 540.101C372.026 537.331 375.552 532.739 376.8 529.9C378.047 527.06 381.103 518.565 383.587 511.009C386.071 503.452 389.448 494.957 391.085 492.117Z" fill="#D7040A" fill-opacity="0.96"/>
<path d="M255.809 492.987L252.947 491.453L250.085 489.907L253.519 489.953C255.408 489.965 257.984 490.377 259.243 490.858C261.257 491.625 260.914 492.094 256.381 494.693C253.542 496.308 250.589 498.46 249.799 499.456C248.574 501.013 249.513 502.399 256.095 508.89C260.342 513.069 263.054 515.909 262.104 515.188C261.154 514.478 260.01 514.272 259.552 514.741C259.094 515.21 257.938 514.947 256.976 514.157C255.557 512.989 255.03 513.092 254.103 514.73C253.073 516.561 252.787 516.493 250.692 513.871C249.147 511.924 248.403 511.558 248.368 512.726C248.334 513.756 247.063 512.886 245.186 510.551C242.977 507.791 241.489 506.875 240.07 507.402C238.971 507.814 237.185 509.566 236.109 511.295C235.045 513.024 233.213 515.737 229.974 520.168L229.985 512.153C229.985 507.745 230.248 504.402 230.557 504.711C230.878 505.021 231.279 507.471 231.45 510.15C231.622 512.829 232.034 514.993 232.343 514.97C232.652 514.936 233.946 512.669 235.205 509.932C236.464 507.196 237.013 505.032 236.418 505.124C235.823 505.204 235.182 504.379 234.987 503.28C234.793 502.181 235.399 500.51 236.349 499.559C237.3 498.609 237.689 497.212 237.208 496.422C236.704 495.586 236.819 495.312 237.494 495.747C238.124 496.159 239.463 495.895 240.47 495.163C241.478 494.43 242.382 493.319 242.473 492.69C242.565 492.06 243.286 491.316 244.076 491.029C244.957 490.709 245.175 491.041 244.648 491.888C244.087 492.781 244.683 493.365 246.365 493.56C247.785 493.72 250.486 493.663 255.809 492.987Z" fill="#D7040A" fill-opacity="0.96"/>
<path d="M444.3 531.491C445.994 528.412 447.986 523.328 448.73 520.179C449.692 516.149 450.378 514.959 451.019 516.172C451.649 517.329 452.805 517.638 454.614 517.111C456.067 516.687 457.91 516.561 458.7 516.825C459.49 517.088 460.119 518.21 460.108 519.321C460.108 520.42 458.105 525.446 455.678 530.484C452.519 536.999 448.993 541.967 443.385 547.727C439.058 552.169 433.712 557.023 431.514 558.5C429.317 559.977 428.149 560.596 428.939 559.863C430.072 558.798 429.958 558.065 428.367 556.279C426.787 554.505 426.054 554.321 424.91 555.42C424.108 556.188 423.261 556.554 423.032 556.245C422.815 555.924 423.078 554.505 423.639 553.096C424.189 551.677 425.287 550.52 426.077 550.532C427.046 550.539 426.951 550.951 425.791 551.768C424.269 552.844 424.269 552.925 425.791 552.512C426.741 552.249 427.508 551.528 427.508 550.909C427.508 550.291 430.599 546.925 434.376 543.433C438.153 539.941 442.618 534.571 444.3 531.491Z" fill="#D7040A" fill-opacity="0.96"/>
<path d="M412.089 538.498C414.447 535.35 417.733 530.06 419.381 526.763C421.041 523.454 422.678 520.752 423.032 520.752C423.376 520.752 423.433 523.191 423.135 526.19C422.838 529.179 421.041 534.72 419.141 538.498C417.229 542.277 414.86 546.398 412.055 549.948L412.891 547.658C413.486 545.998 413.337 545.597 412.318 546.227C411.54 546.696 410.212 546.433 409.354 545.654C408.06 544.463 408.518 543.25 412.089 538.498Z" fill="#D7040A" fill-opacity="0.96"/>
<path d="M229.768 521.199C229.299 520.947 228.978 517.524 229.07 513.585C229.15 509.647 229.39 507.46 229.585 508.719C229.791 509.979 230.111 513.402 230.295 516.333C230.478 519.264 230.237 521.462 229.768 521.199Z" fill="#D7040A" fill-opacity="0.75"/>
<path d="M367.987 578.835C364.839 579.064 359.951 579.064 357.112 578.835C354.273 578.595 356.849 578.4 362.836 578.4C368.822 578.4 371.134 578.595 367.987 578.835Z" fill="#D7040A" fill-opacity="0.16"/>
<path d="M417.206 400.215C414.688 400.456 410.819 400.456 408.621 400.215C406.423 399.963 408.472 399.769 413.2 399.769C417.927 399.769 419.724 399.963 417.206 400.215Z" fill="#D7040A" fill-opacity="0.31"/>
<path d="M337.389 562.945C337.206 560.437 337.813 558.892 339.392 557.827C340.64 556.991 341.785 556.293 341.945 556.27C342.105 556.247 342.231 559.075 342.231 562.532C342.231 568.452 342.094 568.761 339.942 567.685C338.5 566.963 337.561 565.212 337.389 562.945Z" fill="#D7040A"/>
</svg>
